# xmcd
#
# Track frame offsets: 
#        150
#        14104
#        29830
#        45798
#        61827
#        77202
#        90611
#        108906
#        121382
#        139056
#        154434
#
# Disc length: 2259 seconds
#
# Revision: 3
# Processed by: cddbd v1.5.2PL0 Copyright (c) Steve Scherf et al.
# Submitted via: ExactAudioCopy v1.3
#
DISCID=9008d10b
DTITLE=JC Brooks and The Uptown Sound - Want More
DYEAR=2011
DGENRE=Soul
TTITLE0=Want More
TTITLE1=Everything Will Be Fine
TTITLE2=I Got High
TTITLE3=I Am Trying To Break Your Heart
TTITLE4=Don't Lock The Door
TTITLE5=Baaadnews
TTITLE6=To Love Someone (That Don't Love You)
TTITLE7=I Can See Everything
TTITLE8=Missing Things
TTITLE9=Sister Ray Charles
TTITLE10=Awake
EXTD=
EXTT0=
EXTT1=
EXTT2=
EXTT3=
EXTT4=
EXTT5=
EXTT6=
EXTT7=
EXTT8=
EXTT9=
EXTT10=
PLAYORDER=
